<?xml version="1.0" encoding="UTF-8" standalone="no"?>
<!DOCTYPE svg PUBLIC "-//W3C//DTD SVG 1.1//EN" "http://www.w3.org/Graphics/SVG/1.1/DTD/svg11.dtd">
<svg width="100%" height="100%" viewBox="0 0 80 30" version="1.1" xmlns="http://www.w3.org/2000/svg" xmlns:xlink="http://www.w3.org/1999/xlink" xml:space="preserve" style="fill-rule:evenodd;clip-rule:evenodd;stroke-linejoin:round;stroke-miterlimit:1.41421;">
    <g transform="matrix(0.411765,0,0,0.190476,0.882353,-0.238095)">
        <path d="M52.845,22.253L53.189,22.264L53.534,22.281L53.878,22.305L54.223,22.336L54.568,22.373L54.912,22.418L55.257,22.469L55.601,22.527L55.946,22.592L56.29,22.664L56.634,22.743L56.979,22.829L57.323,22.921L57.668,23.02L58.012,23.126L58.356,23.239L58.7,23.358L59.044,23.485L59.389,23.618L59.733,23.758L60.077,23.905L60.421,24.058L60.765,24.218L61.108,24.385L61.452,24.559L61.796,24.74L62.14,24.927L62.484,25.121L62.827,25.321L63.171,25.529L63.514,25.743L63.858,25.963L64.201,26.191L64.545,26.425L64.888,26.665L65.231,26.913L65.575,27.167L65.918,27.427L66.261,27.695L66.604,27.969L66.947,28.249L67.29,28.536L67.633,28.83L67.976,29.13L68.319,29.437L68.662,29.75L69.005,30.07L69.348,30.397L69.691,30.73L70.034,31.069L70.377,31.415L70.72,31.768L71.063,32.127L71.406,32.493L71.749,32.865L72.092,33.244L72.434,33.629L72.777,34.02L73.12,34.418L73.464,34.823L73.807,35.234L74.15,35.651L74.493,36.075L74.836,36.505L75.179,36.942L75.523,37.385L75.866,37.835L76.209,38.291L76.553,38.753L76.897,39.222L77.24,39.697L77.584,40.179L77.928,40.667L78.272,41.161L78.616,41.662L78.96,42.169L79.304,42.682L79.649,43.202L79.993,43.728L80.338,44.261L80.683,44.8L81.028,45.345L81.373,45.897L81.718,46.455L82.063,47.019L82.409,47.59L82.755,48.167L83.101,48.751L83.447,49.34L83.793,49.936L84.139,50.539L84.486,51.147L84.833,51.762L85.18,52.384L85.527,53.012L85.875,53.646L86.222,54.286L86.57,54.933L86.918,55.586L87.267,56.245L87.615,56.911L87.964,57.583L88.313,58.261L88.663,58.945L89.012,59.636L89.362,60.333L89.712,61.037L90.063,61.747L90.414,62.463L90.765,63.185L91.116,63.914L91.468,64.649L91.82,65.391L92.172,66.138L92.526,66.896L93.23,68.419L93.938,69.971L94.647,71.549L95.357,73.151L96.068,74.779L96.776,76.419L97.473,78.034L98.162,79.611L98.849,81.162L99.534,82.686L100.217,84.184L100.9,85.66L101.238,86.383L101.577,87.103L101.916,87.817L102.254,88.524L102.591,89.224L102.928,89.918L103.265,90.605L103.601,91.286L103.937,91.96L104.272,92.628L104.607,93.29L104.941,93.944L105.275,94.593L105.608,95.235L105.941,95.87L106.273,96.499L106.605,97.121L106.936,97.737L107.267,98.346L107.597,98.949L107.927,99.545L108.257,100.135L108.586,100.719L108.914,101.296L109.242,101.866L109.57,102.43L109.897,102.987L110.224,103.538L110.55,104.083L110.875,104.621L111.201,105.152L111.526,105.677L111.85,106.196L112.174,106.708L112.497,107.214L112.82,107.713L113.143,108.206L113.465,108.692L113.787,109.172L114.108,109.645L114.429,110.112L114.749,110.573L115.069,111.027L115.389,111.474L115.708,111.916L116.027,112.35L116.345,112.779L116.663,113.201L116.98,113.617L117.298,114.026L117.614,114.429L117.93,114.825L118.246,115.215L118.562,115.599L118.877,115.976L119.191,116.347L119.505,116.712L119.819,117.07L120.132,117.422L120.446,117.767L120.758,118.107L121.07,118.439L121.382,118.766L121.694,119.086L122.005,119.4L122.316,119.708L122.626,120.009L122.936,120.305L123.246,120.594L123.555,120.876L123.864,121.152L124.172,121.423L124.481,121.686L124.789,121.944L125.096,122.196L125.403,122.441L125.71,122.68L126.017,122.913L126.323,123.139L126.629,123.36L126.935,123.574L127.24,123.782L127.545,123.984L127.85,124.18L128.155,124.37L128.459,124.553L128.763,124.731L129.067,124.902L129.37,125.068L129.674,125.227L129.977,125.38L130.279,125.527L130.582,125.668L130.884,125.803L131.186,125.932L131.488,126.054L131.79,126.171L132.092,126.282L132.393,126.387L132.694,126.485L132.996,126.578L133.297,126.665L133.597,126.745L133.898,126.82L134.199,126.889L134.499,126.952L134.799,127.008L135.1,127.059L135.4,127.104L135.7,127.143L136,127.175L136.3,127.202L136.6,127.223L136.9,127.238L137.2,127.247L137.5,127.25L137.8,127.247L138.1,127.238L138.4,127.223L138.7,127.202L139,127.175L139.3,127.143L139.6,127.104L139.9,127.059L140.201,127.008L140.501,126.952L140.801,126.889L141.102,126.82L141.403,126.745L141.703,126.665L142.004,126.578L142.306,126.485L142.607,126.387L142.908,126.282L143.21,126.171L143.512,126.054L143.814,125.932L144.116,125.803L144.418,125.668L144.721,125.527L145.023,125.38L145.326,125.227L145.63,125.068L145.933,124.902L146.237,124.731L146.541,124.553L146.845,124.37L147.15,124.18L147.455,123.984L147.76,123.782L148.065,123.574L148.371,123.36L148.677,123.139L148.983,122.913L149.29,122.68L149.597,122.441L149.904,122.196L150.211,121.944L150.519,121.686L150.828,121.423L151.136,121.153L151.445,120.876L151.754,120.594L152.064,120.305L152.374,120.009L152.684,119.708L152.995,119.4L153.306,119.086L153.618,118.766L153.93,118.439L154.242,118.107L154.554,117.767L154.867,117.422L155.181,117.07L155.495,116.712L155.809,116.347L156.123,115.976L156.438,115.599L156.754,115.215L157.07,114.825L157.386,114.429L157.702,114.026L158.02,113.617L158.337,113.201L158.655,112.779L158.973,112.35L159.292,111.916L159.611,111.474L159.931,111.027L160.251,110.573L160.571,110.112L160.892,109.645L161.213,109.172L161.535,108.692L161.857,108.206L162.18,107.713L162.503,107.214L162.826,106.708L163.15,106.196L163.474,105.677L163.799,105.152L164.125,104.621L164.45,104.083L164.777,103.538L165.103,102.987L165.43,102.43L165.758,101.866L166.086,101.296L166.414,100.719L166.743,100.135L167.073,99.545L167.403,98.949L167.733,98.346L168.064,97.737L168.395,97.121L168.727,96.499L169.059,95.87L169.392,95.235L169.725,94.593L170.059,93.944L170.393,93.29L170.728,92.628L171.063,91.96L171.399,91.286L171.735,90.605L172.072,89.918L172.409,89.224L172.746,88.524L173.085,87.817L173.423,87.103L173.762,86.383L174.1,85.66L174.783,84.184L175.466,82.686L176.151,81.162L176.838,79.611L177.527,78.034L178.224,76.419L178.521,75.836L178.858,75.367L179.226,75.024L179.616,74.816L180.016,74.75L180.415,74.827L180.803,75.046L181.17,75.399L181.504,75.878L181.797,76.469L182.042,77.157L182.23,77.922L182.358,78.744L182.422,79.6L182.419,80.467L182.35,81.322L182.218,82.14L182.024,82.9L181.776,83.581L181.068,85.221L180.357,86.849L179.647,88.451L178.938,90.029L178.23,91.581L177.526,93.104L177.172,93.862L176.82,94.609L176.468,95.351L176.116,96.086L175.765,96.815L175.414,97.537L175.063,98.253L174.712,98.963L174.362,99.667L174.012,100.364L173.663,101.055L173.313,101.739L172.964,102.417L172.615,103.089L172.267,103.755L171.918,104.414L171.57,105.067L171.222,105.714L170.875,106.354L170.527,106.988L170.18,107.616L169.833,108.238L169.486,108.853L169.139,109.461L168.793,110.064L168.447,110.66L168.101,111.25L167.755,111.833L167.409,112.41L167.063,112.981L166.718,113.545L166.373,114.103L166.028,114.655L165.683,115.2L165.338,115.739L164.993,116.272L164.649,116.798L164.304,117.318L163.96,117.831L163.616,118.338L163.272,118.839L162.928,119.333L162.584,119.821L162.24,120.303L161.897,120.778L161.553,121.247L161.209,121.709L160.866,122.165L160.523,122.615L160.179,123.058L159.836,123.495L159.493,123.925L159.15,124.349L158.807,124.766L158.464,125.177L158.12,125.582L157.777,125.98L157.435,126.371L157.092,126.756L156.749,127.135L156.406,127.507L156.063,127.873L155.72,128.232L155.377,128.585L155.034,128.931L154.691,129.27L154.348,129.603L154.005,129.93L153.662,130.25L153.319,130.563L152.976,130.87L152.633,131.17L152.29,131.464L151.947,131.751L151.604,132.031L151.261,132.305L150.918,132.573L150.575,132.833L150.231,133.087L149.888,133.335L149.545,133.575L149.201,133.809L148.858,134.037L148.514,134.257L148.171,134.471L147.827,134.679L147.483,134.879L147.14,135.073L146.796,135.26L146.452,135.441L146.108,135.615L145.765,135.782L145.421,135.942L145.077,136.095L144.733,136.242L144.389,136.382L144.044,136.515L143.7,136.642L143.356,136.761L143.012,136.874L142.668,136.98L142.323,137.079L141.979,137.171L141.634,137.257L141.29,137.336L140.946,137.408L140.601,137.473L140.257,137.531L139.912,137.582L139.568,137.627L139.223,137.664L138.878,137.695L138.534,137.719L138.189,137.736L137.845,137.747L137.5,137.75L137.155,137.747L136.811,137.736L136.466,137.719L136.122,137.695L135.777,137.664L135.432,137.627L135.088,137.582L134.743,137.531L134.399,137.473L134.054,137.408L133.71,137.336L133.366,137.257L133.021,137.171L132.677,137.079L132.332,136.98L131.988,136.874L131.644,136.761L131.3,136.642L130.956,136.515L130.611,136.382L130.267,136.242L129.923,136.095L129.579,135.942L129.235,135.782L128.892,135.615L128.548,135.441L128.204,135.26L127.86,135.073L127.517,134.879L127.173,134.679L126.829,134.471L126.486,134.257L126.142,134.037L125.799,133.809L125.455,133.575L125.112,133.335L124.769,133.087L124.425,132.833L124.082,132.573L123.739,132.305L123.396,132.031L123.053,131.751L122.71,131.464L122.367,131.17L122.024,130.87L121.681,130.563L121.338,130.25L120.995,129.93L120.652,129.603L120.309,129.27L119.966,128.931L119.623,128.585L119.28,128.232L118.937,127.873L118.594,127.507L118.251,127.135L117.908,126.756L117.566,126.371L117.223,125.98L116.88,125.582L116.536,125.177L116.193,124.766L115.85,124.349L115.507,123.925L115.164,123.495L114.821,123.058L114.477,122.615L114.134,122.165L113.791,121.709L113.447,121.247L113.103,120.778L112.76,120.303L112.416,119.821L112.072,119.333L111.728,118.839L111.384,118.338L111.04,117.831L110.696,117.318L110.351,116.798L110.007,116.272L109.662,115.739L109.317,115.2L108.972,114.655L108.627,114.103L108.282,113.545L107.937,112.981L107.591,112.41L107.245,111.833L106.899,111.25L106.553,110.66L106.207,110.064L105.861,109.461L105.514,108.853L105.167,108.238L104.82,107.616L104.473,106.988L104.125,106.354L103.778,105.714L103.43,105.067L103.082,104.414L102.733,103.755L102.385,103.089L102.036,102.417L101.687,101.739L101.337,101.055L100.988,100.364L100.638,99.667L100.288,98.963L99.937,98.253L99.586,97.537L99.235,96.815L98.884,96.086L98.532,95.351L98.18,94.609L97.828,93.862L97.474,93.104L96.77,91.581L96.062,90.029L95.353,88.451L94.643,86.849L93.932,85.221L93.224,83.581L92.527,81.966L91.838,80.389L91.151,78.838L90.466,77.314L89.783,75.816L89.1,74.34L88.762,73.617L88.423,72.897L88.084,72.183L87.746,71.476L87.409,70.776L87.072,70.082L86.735,69.395L86.399,68.714L86.063,68.04L85.728,67.372L85.393,66.71L85.059,66.056L84.725,65.407L84.392,64.765L84.059,64.13L83.727,63.501L83.395,62.879L83.064,62.263L82.733,61.654L82.403,61.051L82.073,60.455L81.743,59.865L81.414,59.281L81.086,58.704L80.758,58.134L80.43,57.57L80.103,57.013L79.776,56.462L79.45,55.917L79.125,55.379L78.799,54.848L78.474,54.323L78.15,53.804L77.826,53.292L77.503,52.786L77.18,52.287L76.857,51.794L76.535,51.308L76.213,50.828L75.892,50.355L75.571,49.888L75.25,49.427L74.931,48.973L74.611,48.526L74.292,48.084L73.973,47.65L73.655,47.221L73.337,46.799L73.019,46.383L72.702,45.974L72.386,45.571L72.07,45.175L71.754,44.785L71.438,44.401L71.123,44.024L70.809,43.653L70.495,43.288L70.181,42.93L69.868,42.578L69.554,42.233L69.242,41.893L68.93,41.561L68.618,41.234L68.306,40.914L67.995,40.6L67.684,40.292L67.374,39.99L67.064,39.695L66.754,39.406L66.445,39.124L66.136,38.848L65.828,38.577L65.519,38.314L65.211,38.056L64.904,37.804L64.597,37.559L64.29,37.32L63.983,37.087L63.677,36.861L63.371,36.64L63.065,36.426L62.76,36.218L62.455,36.016L62.15,35.82L61.845,35.63L61.541,35.447L61.237,35.269L60.933,35.098L60.63,34.932L60.326,34.773L60.023,34.62L59.721,34.473L59.418,34.332L59.116,34.197L58.814,34.068L58.512,33.946L58.21,33.829L57.908,33.718L57.607,33.613L57.306,33.515L57.004,33.422L56.703,33.335L56.403,33.255L56.102,33.18L55.801,33.111L55.501,33.048L55.201,32.992L54.9,32.941L54.6,32.896L54.3,32.857L54,32.825L53.7,32.798L53.4,32.777L53.1,32.762L52.8,32.753L52.5,32.75L52.2,32.753L51.9,32.762L51.6,32.777L51.3,32.798L51,32.825L50.7,32.857L50.4,32.896L50.1,32.941L49.799,32.992L49.499,33.048L49.199,33.111L48.898,33.18L48.597,33.255L48.297,33.335L47.996,33.422L47.694,33.515L47.393,33.613L47.092,33.718L46.79,33.829L46.488,33.946L46.186,34.068L45.884,34.197L45.582,34.332L45.279,34.473L44.977,34.62L44.674,34.773L44.37,34.932L44.067,35.098L43.763,35.269L43.459,35.447L43.155,35.63L42.85,35.82L42.545,36.016L42.24,36.218L41.935,36.426L41.629,36.64L41.323,36.861L41.017,37.087L40.71,37.32L40.403,37.559L40.096,37.804L39.789,38.056L39.481,38.314L39.172,38.577L38.864,38.848L38.555,39.124L38.246,39.406L37.936,39.695L37.626,39.991L37.316,40.292L37.005,40.6L36.694,40.914L36.382,41.234L36.07,41.561L35.758,41.893L35.446,42.233L35.132,42.578L34.819,42.93L34.505,43.288L34.191,43.653L33.877,44.024L33.562,44.401L33.246,44.785L32.93,45.175L32.614,45.571L32.298,45.974L31.981,46.383L31.663,46.799L31.345,47.221L31.027,47.65L30.708,48.084L30.389,48.526L30.069,48.973L29.749,49.427L29.429,49.888L29.108,50.355L28.787,50.828L28.465,51.308L28.143,51.794L27.82,52.287L27.497,52.786L27.174,53.292L26.85,53.804L26.526,54.323L26.201,54.848L25.875,55.379L25.55,55.917L25.224,56.462L24.897,57.013L24.57,57.57L24.242,58.134L23.914,58.704L23.586,59.281L23.257,59.865L22.927,60.455L22.597,61.051L22.267,61.654L21.936,62.263L21.605,62.879L21.273,63.501L20.941,64.13L20.608,64.765L20.275,65.407L19.941,66.056L19.607,66.71L19.272,67.372L18.937,68.04L18.601,68.714L18.265,69.395L17.928,70.082L17.591,70.776L17.254,71.476L16.916,72.183L16.577,72.897L16.238,73.617L15.9,74.34L15.217,75.816L14.534,77.314L13.849,78.838L13.162,80.389L12.473,81.966L11.776,83.581L11.479,84.164L11.142,84.633L10.774,84.976L10.384,85.184L9.984,85.25L9.585,85.173L9.197,84.954L8.83,84.601L8.496,84.122L8.203,83.531L7.958,82.843L7.77,82.078L7.642,81.256L7.578,80.4L7.581,79.533L7.65,78.678L7.782,77.86L7.975,77.1L8.224,76.419L8.932,74.779L9.643,73.151L10.353,71.549L11.062,69.971L11.77,68.419L12.474,66.896L12.828,66.138L13.18,65.391L13.532,64.649L13.884,63.914L14.235,63.185L14.586,62.463L14.937,61.747L15.288,61.037L15.638,60.333L15.988,59.636L16.337,58.945L16.687,58.261L17.036,57.583L17.385,56.911L17.733,56.245L18.082,55.586L18.43,54.933L18.778,54.286L19.125,53.646L19.473,53.012L19.82,52.384L20.167,51.762L20.514,51.147L20.861,50.539L21.207,49.936L21.553,49.34L21.899,48.75L22.245,48.167L22.591,47.59L22.937,47.019L23.282,46.455L23.627,45.897L23.972,45.345L24.317,44.8L24.662,44.261L25.007,43.728L25.351,43.202L25.696,42.682L26.04,42.169L26.384,41.662L26.728,41.161L27.072,40.667L27.416,40.179L27.76,39.697L28.103,39.222L28.447,38.753L28.791,38.291L29.134,37.835L29.477,37.385L29.821,36.942L30.164,36.505L30.507,36.075L30.85,35.651L31.193,35.234L31.536,34.823L31.88,34.418L32.223,34.02L32.565,33.629L32.908,33.244L33.251,32.865L33.594,32.493L33.937,32.127L34.28,31.768L34.623,31.415L34.966,31.069L35.309,30.73L35.652,30.397L35.995,30.07L36.338,29.75L36.681,29.437L37.024,29.13L37.367,28.83L37.71,28.536L38.053,28.249L38.396,27.969L38.739,27.695L39.082,27.427L39.425,27.167L39.769,26.913L40.112,26.665L40.455,26.425L40.799,26.191L41.142,25.963L41.486,25.743L41.829,25.529L42.173,25.321L42.516,25.121L42.86,24.927L43.204,24.74L43.548,24.559L43.892,24.385L44.235,24.218L44.579,24.058L44.923,23.905L45.267,23.758L45.611,23.618L45.956,23.485L46.3,23.358L46.644,23.239L46.988,23.126L47.332,23.02L47.677,22.921L48.021,22.829L48.366,22.743L48.71,22.664L49.054,22.592L49.399,22.527L49.743,22.469L50.088,22.418L50.432,22.373L50.777,22.336L51.122,22.305L51.466,22.281L51.811,22.264L52.155,22.253L52.5,22.25L52.845,22.253Z"/>
    </g>
</svg>
